<?xml version="1.0" encoding="UTF-8" standalone="no"?><svg xmlns="http://www.w3.org/2000/svg" xmlns:xlink="http://www.w3.org/1999/xlink" contentScriptType="application/ecmascript" contentStyleType="text/css" height="495px" preserveAspectRatio="none" style="width:1761px;height:495px;" version="1.1" viewBox="0 0 1761 495" width="1761px" zoomAndPan="magnify"><defs><filter height="300%" id="f1xgl1xy7ce1jh" width="300%" x="-1" y="-1"><feGaussianBlur result="blurOut" stdDeviation="2.0"/><feColorMatrix in="blurOut" result="blurOut2" type="matrix" values="0 0 0 0 0 0 0 0 0 0 0 0 0 0 0 0 0 0 .4 0"/><feOffset dx="4.0" dy="4.0" in="blurOut2" result="blurOut3"/><feBlend in="SourceGraphic" in2="blurOut3" mode="normal"/></filter></defs><g><text fill="#000000" font-family="sans-serif" font-size="18" lengthAdjust="spacingAndGlyphs" textLength="183" x="793" y="18.6855">Ctc Use Case Diagram</text><!--entity c--><ellipse cx="1114" cy="40.6406" fill="#FEFECE" filter="url(#f1xgl1xy7ce1jh)" rx="8" ry="8" style="stroke: #049595; stroke-width: 2.0;"/><path d="M1114,48.6406 L1114,75.6406 M1101,56.6406 L1127,56.6406 M1114,75.6406 L1101,90.6406 M1114,75.6406 L1127,90.6406 " fill="#FEFECE" filter="url(#f1xgl1xy7ce1jh)" style="stroke: #049595; stroke-width: 2.0;"/><text fill="#000000" font-family="sans-serif" font-size="14" lengthAdjust="spacingAndGlyphs" textLength="67" x="1080.5" y="112.1738">Ctc Officer</text><!--entity d--><ellipse cx="948" cy="185.6406" fill="#FEFECE" filter="url(#f1xgl1xy7ce1jh)" rx="8" ry="8" style="stroke: #049595; stroke-width: 2.0;"/><path d="M948,193.6406 L948,220.6406 M935,201.6406 L961,201.6406 M948,220.6406 L935,235.6406 M948,220.6406 L961,235.6406 " fill="#FEFECE" filter="url(#f1xgl1xy7ce1jh)" style="stroke: #049595; stroke-width: 2.0;"/><text fill="#000000" font-family="sans-serif" font-size="14" lengthAdjust="spacingAndGlyphs" textLength="68" x="914" y="257.1738">Dispatcher</text><!--entity m--><ellipse cx="1281" cy="185.6406" fill="#FEFECE" filter="url(#f1xgl1xy7ce1jh)" rx="8" ry="8" style="stroke: #049595; stroke-width: 2.0;"/><path d="M1281,193.6406 L1281,220.6406 M1268,201.6406 L1294,201.6406 M1281,220.6406 L1268,235.6406 M1281,220.6406 L1294,235.6406 " fill="#FEFECE" filter="url(#f1xgl1xy7ce1jh)" style="stroke: #049595; stroke-width: 2.0;"/><text fill="#000000" font-family="sans-serif" font-size="14" lengthAdjust="spacingAndGlyphs" textLength="66" x="1248" y="257.1738">Maintainer</text><ellipse cx="262.0583" cy="347.0523" fill="#E6FFCC" filter="url(#f1xgl1xy7ce1jh)" rx="100.0583" ry="22.4117" style="stroke: #049595; stroke-width: 1.5;"/><text fill="#000000" font-family="sans-serif" font-size="14" lengthAdjust="spacingAndGlyphs" textLength="173" x="175.5583" y="352.357">Monitor overall train system</text><ellipse cx="1512.0382" cy="347.0805" fill="#E6FFCC" filter="url(#f1xgl1xy7ce1jh)" rx="93.5382" ry="25.9399" style="stroke: #049595; stroke-width: 1.5;"/><text fill="#000000" font-family="sans-serif" font-size="14" lengthAdjust="spacingAndGlyphs" textLength="139" x="1442.5382" y="346.4879">Modify track status for</text><text fill="#000000" font-family="sans-serif" font-size="14" lengthAdjust="spacingAndGlyphs" textLength="81" x="1471.5382" y="364.0973">maintenance</text><ellipse cx="471.2325" cy="347.3871" fill="#E6FFCC" filter="url(#f1xgl1xy7ce1jh)" rx="74.2325" ry="17.2465" style="stroke: #049595; stroke-width: 1.5;"/><text fill="#000000" font-family="sans-serif" font-size="14" lengthAdjust="spacingAndGlyphs" textLength="112" x="415.2325" y="352.6918">Import a schedule</text><ellipse cx="666.0524" cy="347.1785" fill="#E6FFCC" filter="url(#f1xgl1xy7ce1jh)" rx="85.5524" ry="25.5379" style="stroke: #049595; stroke-width: 1.5;"/><text fill="#000000" font-family="sans-serif" font-size="14" lengthAdjust="spacingAndGlyphs" textLength="129" x="601.5524" y="347.2214">Manually schedule a</text><text fill="#000000" font-family="sans-serif" font-size="14" lengthAdjust="spacingAndGlyphs" textLength="57" x="637.5524" y="364.8307">new train</text><ellipse cx="805.2443" cy="459.3895" fill="#E6FFCC" filter="url(#f1xgl1xy7ce1jh)" rx="69.2443" ry="16.2489" style="stroke: #049595; stroke-width: 1.5;"/><text fill="#000000" font-family="sans-serif" font-size="14" lengthAdjust="spacingAndGlyphs" textLength="99" x="755.7443" y="464.6942">Dispatch a train</text><ellipse cx="948.2308" cy="347.2726" fill="#E6FFCC" filter="url(#f1xgl1xy7ce1jh)" rx="90.2308" ry="26.632" style="stroke: #049595; stroke-width: 1.5;"/><text fill="#000000" font-family="sans-serif" font-size="14" lengthAdjust="spacingAndGlyphs" textLength="130" x="883.2308" y="345.6219">Update a dispatched</text><text fill="#000000" font-family="sans-serif" font-size="14" lengthAdjust="spacingAndGlyphs" textLength="99" x="898.7308" y="363.2313">train's schedule</text><ellipse cx="1090.8885" cy="459.2345" fill="#E6FFCC" filter="url(#f1xgl1xy7ce1jh)" rx="56.8885" ry="25.5939" style="stroke: #049595; stroke-width: 1.5;"/><text fill="#000000" font-family="sans-serif" font-size="14" lengthAdjust="spacingAndGlyphs" textLength="84" x="1048.8885" y="459.1879">Suggest train</text><text fill="#000000" font-family="sans-serif" font-size="14" lengthAdjust="spacingAndGlyphs" textLength="39" x="1071.3885" y="476.7972">speed</text><ellipse cx="1218.2325" cy="347.3871" fill="#E6FFCC" filter="url(#f1xgl1xy7ce1jh)" rx="74.2325" ry="17.2465" style="stroke: #049595; stroke-width: 1.5;"/><text fill="#000000" font-family="sans-serif" font-size="14" lengthAdjust="spacingAndGlyphs" textLength="112" x="1162.2325" y="352.6918">Set train authority</text><ellipse cx="1344.8112" cy="459.0923" fill="#E6FFCC" filter="url(#f1xgl1xy7ce1jh)" rx="63.8112" ry="15.4517" style="stroke: #049595; stroke-width: 1.5;"/><text fill="#000000" font-family="sans-serif" font-size="14" lengthAdjust="spacingAndGlyphs" textLength="86" x="1301.8112" y="464.397">Toggle switch</text><ellipse cx="81.0213" cy="459.0449" fill="#E6FFCC" filter="url(#f1xgl1xy7ce1jh)" rx="75.0213" ry="17.4043" style="stroke: #049595; stroke-width: 1.5;"/><text fill="#000000" font-family="sans-serif" font-size="14" lengthAdjust="spacingAndGlyphs" textLength="114" x="24.0213" y="464.3496">View train location</text><ellipse cx="262.1327" cy="459.2672" fill="#E6FFCC" filter="url(#f1xgl1xy7ce1jh)" rx="71.1327" ry="16.6265" style="stroke: #049595; stroke-width: 1.5;"/><text fill="#000000" font-family="sans-serif" font-size="14" lengthAdjust="spacingAndGlyphs" textLength="104" x="210.1327" y="464.5718">View train speed</text><ellipse cx="445.9182" cy="459.0243" fill="#E6FFCC" filter="url(#f1xgl1xy7ce1jh)" rx="77.4182" ry="17.8836" style="stroke: #049595; stroke-width: 1.5;"/><text fill="#000000" font-family="sans-serif" font-size="14" lengthAdjust="spacingAndGlyphs" textLength="120" x="385.9182" y="464.3289">View train authority</text><ellipse cx="1511.8977" cy="459.0202" fill="#E6FFCC" filter="url(#f1xgl1xy7ce1jh)" rx="67.3977" ry="15.8795" style="stroke: #049595; stroke-width: 1.5;"/><text fill="#000000" font-family="sans-serif" font-size="14" lengthAdjust="spacingAndGlyphs" textLength="94" x="1464.8977" y="464.3249">Open the track</text><ellipse cx="1682.7635" cy="459.0933" fill="#E6FFCC" filter="url(#f1xgl1xy7ce1jh)" rx="67.7635" ry="15.9527" style="stroke: #049595; stroke-width: 1.5;"/><text fill="#000000" font-family="sans-serif" font-size="14" lengthAdjust="spacingAndGlyphs" textLength="95" x="1635.2635" y="464.398">Close the track</text><!--link c to d--><path d="M1065.06,116.2966 C1038.39,139.2736 1006.04,167.1416 982.112,187.7546 " fill="none" id="c-d" style="stroke: #006666; stroke-width: 1.0;"/><polygon fill="none" points="1060.69,110.8286,1080.41,103.0786,1069.82,121.4356,1060.69,110.8286" style="stroke: #006666; stroke-width: 1.0;"/><!--link c to m--><path d="M1163.06,116.1526 C1190.36,139.5226 1223.6,167.9876 1247.83,188.7336 " fill="none" id="c-m" style="stroke: #006666; stroke-width: 1.0;"/><polygon fill="none" points="1158.43,121.4046,1147.79,103.0786,1167.54,110.7706,1158.43,121.4046" style="stroke: #006666; stroke-width: 1.0;"/><!--link d to Import a schedule--><path d="M913.971,227.9576 C846.801,245.3966 692.452,285.6376 563,320.6406 C549.32,324.3396 534.516,328.4126 520.864,332.1966 " fill="none" id="d-Import a schedule" style="stroke: #006666; stroke-width: 1.0;"/><polygon fill="#006666" points="515.891,333.5756,525.6329,335.0234,520.7089,332.2387,523.4937,327.3147,515.891,333.5756" style="stroke: #006666; stroke-width: 1.0;"/><!--link d to Manually schedule a \nnew train--><path d="M913.984,234.4596 C864.827,256.5976 773.583,297.6906 716.535,323.3816 " fill="none" id="d-Manually schedule a \nnew train" style="stroke: #006666; stroke-width: 1.0;"/><polygon fill="#006666" points="711.807,325.5116,721.6557,325.4633,716.366,323.4586,718.3708,318.1689,711.807,325.5116" style="stroke: #006666; stroke-width: 1.0;"/><!--link d to Dispatch a train--><path d="M913.866,242.8746 C889.76,261.3806 858.56,289.1676 840,320.6406 C817.829,358.2366 809.582,409.6592 806.605,437.7583 " fill="none" id="d-Dispatch a train" style="stroke: #006666; stroke-width: 1.0;"/><polygon fill="#006666" points="806.078,443.0561,810.9503,434.4969,806.5735,438.0807,802.9897,433.704,806.078,443.0561" style="stroke: #006666; stroke-width: 1.0;"/><!--link d to Update a dispatched\ntrain's schedule--><path d="M948,260.7256 C948,278.4036 948,298.6646 948,315.0156 " fill="none" id="d-Update a dispatched\ntrain's schedule" style="stroke: #006666; stroke-width: 1.0;"/><polygon fill="#006666" points="948,320.4016,952,311.4016,948,315.4016,944,311.4016,948,320.4016" style="stroke: #006666; stroke-width: 1.0;"/><!--link d to Suggest train\nspeed--><path d="M982.002,243.1746 C1005.816,261.7326 1036.56,289.4526 1055,320.6406 C1074.92,354.3356 1083.98,399.0664 1087.98,428.2194 " fill="none" id="d-Suggest train\nspeed" style="stroke: #006666; stroke-width: 1.0;"/><polygon fill="#006666" points="1088.67,433.4754,1091.4627,424.0308,1088.0183,428.5181,1083.531,425.0736,1088.67,433.4754" style="stroke: #006666; stroke-width: 1.0;"/><!--link d to Set train authority--><path d="M982.196,235.2256 C1033.57,259.3916 1130.21,304.8466 1182.4,329.3946 " fill="none" id="d-Set train authority" style="stroke: #006666; stroke-width: 1.0;"/><polygon fill="#006666" points="1187,331.5596,1180.5591,324.1088,1182.4757,329.4311,1177.1534,331.3476,1187,331.5596" style="stroke: #006666; stroke-width: 1.0;"/><!--link d to Toggle switch--><path d="M982.094,218.2486 C1053.38,218.3306 1219.02,229.0216 1309,320.6406 C1340.42,352.6276 1345.37,408.4717 1345.6,438.196 " fill="none" id="d-Toggle switch" style="stroke: #006666; stroke-width: 1.0;"/><polygon fill="#006666" points="1345.6,443.4306,1349.6116,434.4358,1345.6064,438.4306,1341.6116,434.4255,1345.6,443.4306" style="stroke: #006666; stroke-width: 1.0;"/><!--link d to mots--><path d="M913.924,224.7536 C825.458,239.4276 581.277,280.5716 379,320.6406 C365.015,323.4106 350.126,326.5266 335.822,329.6046 " fill="none" id="d-mots" style="stroke: #006666; stroke-width: 1.0;"/><polygon fill="#006666" points="330.581,330.7356,340.2227,332.7451,335.4683,329.6799,338.5335,324.9255,330.581,330.7356" style="stroke: #006666; stroke-width: 1.0;"/><!--link mots to View train location--><path d="M228.379,368.5726 C194.762,389.0034 143.535,420.1357 111.184,439.7964 " fill="none" id="mots-View train location" style="stroke: #006666; stroke-width: 1.0; stroke-dasharray: 7.0,7.0;"/><polygon fill="#006666" points="106.553,442.6113,116.3217,441.3572,110.8263,440.0154,112.1681,434.52,106.553,442.6113" style="stroke: #006666; stroke-width: 1.0;"/><text fill="#000000" font-family="sans-serif" font-size="13" lengthAdjust="spacingAndGlyphs" textLength="73" x="130.2026" y="430.8582">&lt;&lt;include&gt;&gt;</text><!--link mots to View train speed--><path d="M262,369.8726 C262,389.4462 262,418.0232 262,437.3125 " fill="none" id="mots-View train speed" style="stroke: #006666; stroke-width: 1.0; stroke-dasharray: 7.0,7.0;"/><polygon fill="#006666" points="262,442.4916,266,433.4916,262,437.4916,258,433.4916,262,442.4916" style="stroke: #006666; stroke-width: 1.0;"/><text fill="#000000" font-family="sans-serif" font-size="13" lengthAdjust="spacingAndGlyphs" textLength="73" x="176.8654" y="431.8381">&lt;&lt;include&gt;&gt;</text><!--link mots to View train authority--><path d="M296.178,368.5726 C330.194,388.9088 381.946,419.8475 414.857,439.5224 " fill="none" id="mots-View train authority" style="stroke: #006666; stroke-width: 1.0; stroke-dasharray: 7.0,7.0;"/><polygon fill="#006666" points="419.173,442.1024,413.5008,434.051,414.8815,439.5367,409.3957,440.9174,419.173,442.1024" style="stroke: #006666; stroke-width: 1.0;"/><text fill="#000000" font-family="sans-serif" font-size="13" lengthAdjust="spacingAndGlyphs" textLength="73" x="322.0608" y="430.1631">&lt;&lt;include&gt;&gt;</text><!--link m to mts--><path d="M1314.1,237.3366 C1354.14,259.3516 1421.75,296.5256 1466.63,321.1996 " fill="none" id="m-mts" style="stroke: #006666; stroke-width: 1.0;"/><polygon fill="#006666" points="1471.18,323.6956,1465.2279,315.8488,1466.8008,321.2826,1461.367,322.8555,1471.18,323.6956" style="stroke: #006666; stroke-width: 1.0;"/><!--link mts to Open the track--><path d="M1512,373.3766 C1512,392.806 1512,419.3264 1512,437.499 " fill="none" id="mts-Open the track" style="stroke: #006666; stroke-width: 1.0; stroke-dasharray: 7.0,7.0;"/><polygon fill="#006666" points="1512,442.8537,1516,433.8537,1512,437.8537,1508,433.8537,1512,442.8537" style="stroke: #006666; stroke-width: 1.0;"/><text fill="#000000" font-family="sans-serif" font-size="13" lengthAdjust="spacingAndGlyphs" textLength="73" x="1426.9433" y="432.4019">&lt;&lt;include&gt;&gt;</text><!--link mts to Close the track--><path d="M1547.85,371.2006 C1580.2,392.0106 1627.06,422.1571 1656.25,440.9306 " fill="none" id="mts-Close the track" style="stroke: #006666; stroke-width: 1.0; stroke-dasharray: 7.0,7.0;"/><polygon fill="#006666" points="1660.77,443.8429,1655.3776,435.6014,1656.5691,441.1314,1651.0392,442.3229,1660.77,443.8429" style="stroke: #006666; stroke-width: 1.0;"/><text fill="#000000" font-family="sans-serif" font-size="13" lengthAdjust="spacingAndGlyphs" textLength="73" x="1564.7382" y="432.2524">&lt;&lt;include&gt;&gt;</text><!--
@startuml
title Ctc Use Case Diagram
skinparam backgroundColor transparent'
skinparam usecaseBackgroundColor #e6ffcc
skinparam usecaseBorderColor 	#049595
skinparam actorBorderColor 	#049595
skinparam packageBorderColor  #049595
skinparam arrowColor #006666

:Ctc Officer: as c
:Dispatcher: as d
:Maintainer: as m
c <|- - d
c <|- - m
(Monitor overall train system) as mots
(Modify track status for\nmaintenance) as mts
d - -> (Import a schedule)
d - -> (Manually schedule a \nnew train)
d - - -> (Dispatch a train)
d - -> (Update a dispatched\ntrain's schedule)
d - - -> (Suggest train\nspeed)
d - -> (Set train authority)
d - - -> (Toggle switch)
d - -> mots
mots .->"<<include>>" (View train location)
mots .->"<<include>>" (View train speed)
mots .->"<<include>>" (View train authority)

m - -> mts
mts .->"<<include>>" (Open the track)
mts .->"<<include>>" (Close the track)
@enduml

PlantUML version 1.2017.18(Fri Oct 06 12:56:32 EDT 2017)
(GPL source distribution)
Java Runtime: Java(TM) SE Runtime Environment
JVM: Java HotSpot(TM) 64-Bit Server VM
Java Version: 1.8.0_45-b14
Operating System: Windows 8.1
OS Version: 6.3
Default Encoding: Cp1252
Language: en
Country: US
--></g></svg>